%
M48
M72
T01C0.0130
T02C0.0400
%
T01
X2687Y2388
X3246Y2453
X3822Y2408
X3775Y2982
X3984Y3349
X3775Y3683
X3469Y3333
X3012Y3619
X2873Y3267
X2269Y3318
X3205Y3994
X4224Y4892
X4767Y4787
X5283Y4615
X5517Y5037
X5357Y5507
X5767Y5537
X6267Y5537
X6517Y5037
X6017Y4537
X6267Y4037
X6404Y3521
X6017Y3537
X6267Y3037
X6017Y2537
X5455Y2439
X4947Y2476
X5238Y3230
X5441Y3847
X4926Y3865
X4437Y4164
X3767Y5787
X3312Y5789
X3517Y6537
X3017Y6537
X2547Y6792
X3017Y7037
X3517Y7037
X3939Y7310
X3705Y7787
X3892Y8693
X4267Y9787
X4189Y10255
X4517Y10537
X4267Y10912
X3892Y10912
X3517Y10849
X3705Y10443
X3767Y10037
X2986Y10412
X2642Y10412
X2299Y10412
X1955Y10412
X2267Y10037
X2767Y9927
X2517Y9537
X2017Y9537
X1517Y9537
X1517Y10037
X1330Y10474
X1299Y10912
X1299Y11255
X1299Y11599
X1299Y11943
X2017Y11880
X2017Y11505
X2392Y11505
X2392Y11880
X2767Y11880
X2767Y11505
X2767Y11130
X2392Y11130
X2017Y11130
X3611Y11974
X3705Y12287
X4049Y12318
X3955Y11974
X4299Y11974
X4642Y12005
X4986Y12005
X5049Y12380
X4736Y12568
X4486Y12318
X4205Y12693
X3686Y12674
X3642Y13193
X3642Y13537
X3361Y13755
X3017Y13630
X2674Y13630
X2330Y13599
X2330Y13255
X1986Y13193
X1642Y13193
X1299Y13193
X1267Y13787
X1767Y13787
X4017Y13787
X4517Y13787
X4986Y13662
X4892Y13318
X4861Y12943
X4486Y13224
X4017Y13287
X6392Y12693
X6392Y12349
X6392Y12005
X6611Y11787
X6611Y11443
X6330Y11193
X5986Y11193
X5642Y11193
X5299Y11193
X4955Y11193
X4611Y11193
X5017Y10537
X5174Y10224
X5517Y10537
X5955Y10771
X6392Y10849
X6392Y10505
X6580Y10224
X6932Y10130
X7267Y10326
X7767Y10537
X8267Y10349
X8736Y10380
X9111Y10505
X8955Y10818
X8955Y11193
X8611Y11193
X8267Y11193
X7924Y11193
X7580Y11193
X7205Y11099
X7205Y10755
X7017Y11443
X6986Y11787
X7205Y12005
X7205Y12349
X7205Y12693
X7705Y12693
X8017Y12537
X7705Y12349
X7705Y12005
X8080Y12005
X8486Y12005
X8861Y12005
X8986Y12412
X9174Y12787
X9486Y12943
X9517Y13537
X9017Y13537
X8517Y13537
X8017Y13537
X7517Y13505
X8517Y12537
X9517Y11943
X9517Y11599
X9517Y11255
X9580Y10912
X9924Y10787
X10174Y11005
X10017Y11318
X10049Y11662
X10017Y12005
X10017Y12380
X9611Y12287
X10174Y12943
X10486Y12787
X10830Y12505
X11127Y12771
X11603Y12693
X11642Y12287
X11299Y12287
X12041Y12259
X11986Y11443
X12330Y11443
X12674Y11443
X13017Y11443
X13017Y11099
X13017Y10755
X13267Y10474
X13674Y10474
X13892Y10787
X13892Y11130
X14080Y11412
X14424Y11412
X14767Y11412
X15111Y11412
X15455Y11412
X15799Y11412
X16142Y11412
X16486Y11412
X16830Y11412
X17174Y11412
X17517Y11412
X17517Y11068
X17174Y11068
X17861Y11068
X17861Y11412
X17861Y12287
X17517Y12287
X17174Y12287
X16830Y12287
X16486Y12287
X16142Y12287
X15799Y12287
X15455Y12287
X15111Y12287
X14767Y12287
X14424Y12287
X14424Y12630
X14424Y12974
X14877Y12677
X15017Y13037
X15377Y12708
X15517Y13037
X16017Y12787
X16517Y12787
X16312Y13343
X16892Y13357
X17381Y13335
X17830Y13353
X17836Y13824
X17262Y13820
X16758Y13845
X16267Y13855
X15517Y13787
X15017Y13537
X14611Y13880
X14205Y13880
X14205Y13443
X13892Y12943
X13892Y12630
X13892Y12287
X13674Y12005
X13674Y11662
X13299Y11662
X13299Y12005
X13080Y12287
X13080Y12630
X13080Y12943
X13549Y13443
X11674Y13662
X11517Y13193
X11017Y13537
X10517Y13537
X10017Y13537
X11549Y11458
X11627Y11146
X11627Y10802
X11658Y10443
X12096Y10255
X11658Y10083
X11674Y9724
X11674Y9380
X11674Y9037
X11924Y8787
X12267Y8787
X12611Y8724
X13017Y9037
X12986Y9443
X12517Y9537
X12142Y9271
X11486Y8599
X11049Y8599
X10744Y8794
X10486Y9060
X10135Y9177
X10132Y9578
X10517Y9537
X10861Y9568
X10861Y9912
X10455Y9943
X10424Y10318
X10658Y10568
X10752Y10865
X10861Y10287
X10080Y10193
X9736Y10193
X9392Y10287
X8267Y10787
X7930Y9886
X7412Y9894
X7351Y9249
X6920Y9214
X6807Y8841
X6267Y8787
X6267Y9287
X6390Y9894
X5855Y9931
X6017Y10287
X7799Y9255
X8119Y8966
X7504Y8781
X6955Y8099
X7517Y8037
X7017Y7537
X6517Y7037
X6017Y6787
X5525Y6529
X5517Y7037
X6267Y6287
X6767Y6537
X7517Y6537
X8017Y6537
X8517Y6537
X8517Y7037
X9049Y6943
X9017Y6537
X9762Y6873
X9682Y7287
X10307Y7255
X10439Y6802
X10861Y6787
X10861Y7130
X10830Y7474
X10674Y7974
X10267Y7974
X9900Y7982
X9892Y8482
X10174Y8810
X10861Y9224
X11049Y8162
X11486Y8162
X11674Y7880
X12017Y7974
X12361Y7974
X12705Y8037
X12642Y8380
X13377Y8537
X13517Y9037
X13564Y9458
X14017Y9537
X14017Y10037
X14517Y10037
X15002Y9990
X15017Y9537
X14564Y9568
X14517Y9037
X14002Y9021
X14017Y8537
X13517Y8037
X13017Y7537
X13517Y7287
X13752Y6830
X13693Y6404
X13267Y6255
X13267Y5912
X12846Y5826
X12416Y5960
X12543Y5392
X12064Y5216
X12256Y4865
X12672Y4874
X13090Y4855
X13017Y5193
X13267Y5568
X13705Y4818
X13955Y4568
X14205Y4818
X14799Y4849
X15142Y4849
X15486Y4849
X15830Y4849
X16174Y4912
X16517Y4912
X16861Y4912
X17205Y4912
X17549Y4912
X17549Y5255
X17205Y5255
X16861Y5505
X16517Y5287
X16017Y5287
X16221Y5937
X16613Y5923
X17029Y5923
X17506Y5925
X17736Y6412
X17047Y6447
X16627Y6443
X16221Y6458
X15705Y6474
X15267Y6537
X15517Y7037
X15416Y7427
X15049Y7849
X14517Y8037
X14017Y7537
X14767Y7287
X15517Y8037
X16017Y7537
X16517Y7537
X16517Y8037
X17017Y8193
X17517Y8037
X17892Y7771
X17422Y7417
X17767Y7287
X17017Y7537
X16221Y6958
X15517Y6037
X14971Y5990
X14547Y6296
X14455Y5931
X14443Y5550
X14853Y5238
X15267Y5537
X14150Y6400
X12986Y6958
X12517Y7037
X12517Y6537
X11674Y6505
X11674Y6162
X11611Y5818
X11611Y5474
X11642Y5068
X10799Y4849
X10611Y5099
X10486Y4818
X9924Y5068
X10017Y5537
X10017Y6037
X10611Y5818
X10611Y5443
X10775Y6365
X10017Y6537
X9017Y7537
X8564Y7701
X9017Y8037
X9174Y8435
X8267Y8287
X8017Y7537
X7517Y7037
X7767Y5537
X7767Y5037
X7767Y4537
X7517Y4037
X7767Y3537
X7517Y3037
X7767Y2537
X8400Y2607
X8955Y2529
X8726Y3146
X8957Y3915
X8400Y3933
X8767Y4537
X8267Y4787
X9017Y5037
X9017Y5537
X8517Y5537
X10517Y4037
X11517Y3537
X12037Y3533
X12317Y3190
X12236Y4099
X12642Y4099
X13017Y4099
X13705Y4318
X14205Y4318
X15142Y4068
X15486Y4068
X15830Y4068
X16174Y4037
X16517Y4037
X16861Y4037
X17205Y4037
X17580Y4037
X17924Y4037
X17924Y3693
X17580Y3693
X17205Y3693
X16517Y3537
X16221Y2974
X15767Y3318
X15799Y3662
X15418Y3072
X15267Y2333
X14767Y2333
X14267Y2333
X13767Y2333
X15783Y2333
X16201Y2449
X17182Y2447
X17078Y2982
X17822Y2998
X17828Y2472
X17892Y4912
X17892Y5255
X17517Y8537
X17674Y9068
X17017Y9037
X16517Y9037
X16049Y9099
X15517Y9037
X15611Y9552
X15517Y10037
X15017Y10537
X14517Y10787
X15017Y11037
X15517Y10787
X16267Y10787
X16252Y10365
X16269Y9876
X16947Y9882
X16826Y10367
X17318Y10367
X17793Y10351
X17861Y9833
X17445Y9845
X16767Y8537
X16017Y8537
X15017Y8537
X13267Y9787
X12517Y10037
X12517Y10537
X12502Y10896
X12017Y10787
X11674Y7537
X11674Y7193
X11674Y6849
X12252Y7490
X17174Y12630
X17517Y12630
X17892Y12630
X5517Y6037
X2303Y5242
X1502Y6699
X1986Y6902
X2203Y7269
X1517Y7287
T02
X1611Y5818
X1611Y4818
X1611Y3818
X1611Y2818
M30
