G75*
%MOIN*%
%OFA0B0*%
%FSLAX24Y24*%
%IPPOS*%
%LPD*%
%AMOC8*
5,1,8,0,0,1.08239X$1,22.5*
%
%ADD10C,0.0050*%
%ADD11C,0.0300*%
%ADD12C,0.0140*%
%ADD13C,0.0110*%
%ADD14C,0.0200*%
%ADD15C,0.0450*%
%ADD16R,0.0395X0.0552*%
%ADD17R,0.2080X0.0530*%
%ADD18R,0.2080X0.0980*%
%ADD19R,0.0165X0.0206*%
%ADD20R,0.0825X0.0825*%
%ADD21R,0.0206X0.0165*%
%ADD22R,0.0380X0.0380*%
%ADD23R,0.0480X0.0800*%
%ADD24R,0.0800X0.0480*%
%ADD25C,0.0283*%
%ADD26R,0.0275X0.0150*%
%ADD27R,0.0150X0.0275*%
%ADD28R,0.0434X0.0395*%
%ADD29R,0.0631X0.0474*%
%ADD30R,0.0433X0.0217*%
%ADD31R,0.0316X0.0218*%
%ADD32R,0.0867X0.0218*%
%ADD33R,0.0218X0.0316*%
%ADD34R,0.0218X0.0867*%
%ADD35R,0.0552X0.0395*%
%ADD36R,0.0680X0.0680*%
%ADD37C,0.0680*%
%ADD38R,0.0530X0.2080*%
%ADD39R,0.0980X0.2080*%
%ADD40R,0.0316X0.0277*%
%ADD41R,0.0277X0.0316*%
D10*
X009365Y002210D02*
X009538Y002210D01*
X009650Y002253D02*
X009650Y002383D01*
X009650Y002253D02*
X009694Y002210D01*
X009824Y002210D01*
X009824Y002383D01*
X009936Y002297D02*
X010066Y002383D01*
X010173Y002340D02*
X010173Y002253D01*
X010217Y002210D01*
X010304Y002210D01*
X010347Y002297D02*
X010173Y002297D01*
X010173Y002340D02*
X010217Y002383D01*
X010304Y002383D01*
X010347Y002340D01*
X010347Y002297D01*
X010066Y002210D02*
X009936Y002297D01*
X009936Y002210D02*
X009936Y002470D01*
X009881Y002618D02*
X009741Y002618D01*
X009694Y002665D01*
X009741Y002712D01*
X009881Y002712D01*
X009881Y002758D02*
X009881Y002618D01*
X009998Y002618D02*
X010138Y002618D01*
X010185Y002665D01*
X010138Y002712D01*
X010045Y002712D01*
X009998Y002758D01*
X010045Y002805D01*
X010185Y002805D01*
X010302Y002805D02*
X010348Y002805D01*
X010348Y002618D01*
X010302Y002618D02*
X010395Y002618D01*
X010504Y002665D02*
X010551Y002618D01*
X010691Y002618D01*
X010744Y002470D02*
X010744Y002210D01*
X010831Y002297D01*
X010918Y002210D01*
X010918Y002470D01*
X011030Y002340D02*
X011073Y002383D01*
X011160Y002383D01*
X011203Y002340D01*
X011203Y002297D01*
X011030Y002297D01*
X011030Y002340D02*
X011030Y002253D01*
X011073Y002210D01*
X011160Y002210D01*
X011315Y002210D02*
X011445Y002210D01*
X011489Y002253D01*
X011445Y002297D01*
X011359Y002297D01*
X011315Y002340D01*
X011359Y002383D01*
X011489Y002383D01*
X011601Y002383D02*
X011687Y002383D01*
X011644Y002427D02*
X011644Y002253D01*
X011687Y002210D01*
X011791Y002253D02*
X011834Y002210D01*
X011921Y002210D01*
X011964Y002253D01*
X011964Y002340D01*
X011921Y002383D01*
X011834Y002383D01*
X011791Y002340D01*
X011791Y002253D01*
X012076Y002210D02*
X012076Y002383D01*
X012207Y002383D01*
X012250Y002340D01*
X012250Y002210D01*
X012362Y002123D02*
X012449Y002210D01*
X012405Y002210D01*
X012405Y002253D01*
X012449Y002253D01*
X012449Y002210D01*
X012838Y002210D02*
X013011Y002383D01*
X013011Y002427D01*
X012968Y002470D01*
X012881Y002470D01*
X012838Y002427D01*
X012935Y002618D02*
X012935Y002898D01*
X013122Y002898D01*
X013239Y002898D02*
X013332Y002805D01*
X013426Y002898D01*
X013426Y002618D01*
X013543Y002665D02*
X013590Y002618D01*
X013683Y002618D01*
X013730Y002665D01*
X013847Y002618D02*
X013940Y002712D01*
X014034Y002618D01*
X014034Y002898D01*
X013847Y002898D02*
X013847Y002618D01*
X013824Y002470D02*
X013694Y002340D01*
X013867Y002340D01*
X013824Y002210D02*
X013824Y002470D01*
X013582Y002210D02*
X013408Y002210D01*
X013495Y002210D02*
X013495Y002470D01*
X013408Y002383D01*
X013297Y002427D02*
X013297Y002253D01*
X013253Y002210D01*
X013166Y002210D01*
X013123Y002253D01*
X013297Y002427D01*
X013253Y002470D01*
X013166Y002470D01*
X013123Y002427D01*
X013123Y002253D01*
X013011Y002210D02*
X012838Y002210D01*
X012514Y002618D02*
X012327Y002618D01*
X012514Y002805D01*
X012327Y002805D01*
X012210Y002758D02*
X012024Y002758D01*
X011907Y002758D02*
X011813Y002758D01*
X011907Y002758D02*
X011907Y002665D01*
X011860Y002618D01*
X011766Y002618D01*
X011720Y002665D01*
X011720Y002852D01*
X011766Y002898D01*
X011860Y002898D01*
X011907Y002852D01*
X012024Y002898D02*
X012024Y002618D01*
X012210Y002618D02*
X012210Y002898D01*
X012935Y002758D02*
X013029Y002758D01*
X013239Y002618D02*
X013239Y002898D01*
X013543Y002852D02*
X013543Y002665D01*
X013543Y002852D02*
X013590Y002898D01*
X013683Y002898D01*
X013730Y002852D01*
X014454Y002898D02*
X014454Y002618D01*
X014454Y002712D02*
X014595Y002712D01*
X014641Y002758D01*
X014641Y002852D01*
X014595Y002898D01*
X014454Y002898D01*
X014548Y002712D02*
X014641Y002618D01*
X014758Y002665D02*
X014805Y002712D01*
X014945Y002712D01*
X014945Y002758D02*
X014945Y002618D01*
X014805Y002618D01*
X014758Y002665D01*
X014805Y002805D02*
X014898Y002805D01*
X014945Y002758D01*
X015062Y002758D02*
X015109Y002805D01*
X015249Y002805D01*
X015249Y002898D02*
X015249Y002618D01*
X015109Y002618D01*
X015062Y002665D01*
X015062Y002758D01*
X015366Y002665D02*
X015413Y002618D01*
X015553Y002618D01*
X015553Y002758D01*
X015506Y002805D01*
X015413Y002805D01*
X015413Y002712D02*
X015553Y002712D01*
X015670Y002712D02*
X015763Y002805D01*
X015810Y002805D01*
X015670Y002805D02*
X015670Y002618D01*
X015413Y002712D02*
X015366Y002665D01*
X011299Y002665D02*
X011299Y002712D01*
X011252Y002758D01*
X011112Y002758D01*
X011112Y002665D01*
X011159Y002618D01*
X011252Y002618D01*
X011299Y002665D01*
X011112Y002758D02*
X011205Y002852D01*
X011299Y002898D01*
X010691Y002805D02*
X010551Y002805D01*
X010504Y002758D01*
X010504Y002665D01*
X010348Y002898D02*
X010348Y002945D01*
X009881Y002758D02*
X009834Y002805D01*
X009741Y002805D01*
X009577Y002805D02*
X009530Y002758D01*
X009390Y002758D01*
X009390Y002618D02*
X009530Y002618D01*
X009577Y002665D01*
X009577Y002712D01*
X009530Y002758D01*
X009577Y002805D02*
X009577Y002852D01*
X009530Y002898D01*
X009390Y002898D01*
X009390Y002618D01*
X009365Y002470D02*
X009365Y002210D01*
D11*
X010412Y004462D02*
X010752Y004462D01*
X010794Y004464D01*
X010837Y004469D01*
X010878Y004477D01*
X010919Y004489D01*
X010959Y004505D01*
X010997Y004523D01*
X011033Y004545D01*
X011068Y004569D01*
X011101Y004597D01*
X011131Y004626D01*
X011158Y004659D01*
X011183Y004693D01*
X011205Y004730D01*
X011224Y004768D01*
X011240Y004807D01*
X011252Y004848D01*
X011261Y004889D01*
X011266Y004932D01*
X011268Y004974D01*
X011267Y004974D02*
X011267Y005037D01*
X012055Y004460D02*
X013189Y004458D01*
X014717Y004462D02*
X015119Y004462D01*
X015537Y004460D02*
X016027Y004460D01*
X011267Y006052D02*
X011267Y006359D01*
X011267Y006779D02*
X011267Y007349D01*
X011267Y009443D02*
X011267Y009912D01*
X011267Y010402D02*
X011265Y010867D01*
X011266Y010867D02*
X011264Y010910D01*
X011259Y010952D01*
X011250Y010994D01*
X011238Y011035D01*
X011222Y011075D01*
X011204Y011114D01*
X011182Y011150D01*
X011157Y011185D01*
X011129Y011218D01*
X011099Y011248D01*
X011066Y011276D01*
X011031Y011301D01*
X010995Y011323D01*
X010956Y011341D01*
X010916Y011357D01*
X010875Y011369D01*
X010833Y011378D01*
X010791Y011383D01*
X010748Y011385D01*
X010748Y011384D02*
X010674Y011384D01*
X010672Y011816D02*
X010765Y011816D01*
X010807Y011855D01*
X011465Y011855D01*
X011883Y011855D02*
X012355Y011855D01*
X014504Y011855D02*
X015150Y011855D01*
X015568Y011855D02*
X016390Y011855D01*
X009111Y011599D02*
X008805Y011599D01*
X008387Y011599D02*
X007736Y011599D01*
X005830Y011599D02*
X005226Y011599D01*
X004808Y011599D02*
X004213Y011599D01*
D12*
X009236Y012099D02*
X009236Y011099D01*
X009861Y010474D02*
X009910Y010476D01*
X009959Y010482D01*
X010007Y010491D01*
X010054Y010505D01*
X010100Y010522D01*
X010145Y010542D01*
X010188Y010566D01*
X010228Y010593D01*
X010267Y010624D01*
X010303Y010657D01*
X010336Y010693D01*
X010367Y010732D01*
X010394Y010772D01*
X010418Y010815D01*
X010438Y010860D01*
X010455Y010906D01*
X010469Y010953D01*
X010478Y011001D01*
X010484Y011050D01*
X010486Y011099D01*
X010486Y011318D01*
X009861Y010474D02*
X009812Y010476D01*
X009763Y010482D01*
X009715Y010491D01*
X009668Y010505D01*
X009622Y010522D01*
X009577Y010542D01*
X009534Y010566D01*
X009494Y010593D01*
X009455Y010624D01*
X009419Y010657D01*
X009386Y010693D01*
X009355Y010732D01*
X009328Y010772D01*
X009304Y010815D01*
X009284Y010860D01*
X009267Y010906D01*
X009253Y010953D01*
X009244Y011001D01*
X009238Y011050D01*
X009236Y011099D01*
X010486Y012099D02*
X010484Y012148D01*
X010478Y012197D01*
X010469Y012245D01*
X010455Y012292D01*
X010438Y012338D01*
X010418Y012383D01*
X010394Y012426D01*
X010367Y012466D01*
X010336Y012505D01*
X010303Y012541D01*
X010267Y012574D01*
X010228Y012605D01*
X010188Y012632D01*
X010145Y012656D01*
X010100Y012676D01*
X010054Y012693D01*
X010007Y012707D01*
X009959Y012716D01*
X009910Y012722D01*
X009861Y012724D01*
X009812Y012722D01*
X009763Y012716D01*
X009715Y012707D01*
X009668Y012693D01*
X009622Y012676D01*
X009577Y012656D01*
X009534Y012632D01*
X009494Y012605D01*
X009455Y012574D01*
X009419Y012541D01*
X009386Y012505D01*
X009355Y012466D01*
X009328Y012426D01*
X009304Y012383D01*
X009284Y012338D01*
X009267Y012292D01*
X009253Y012245D01*
X009244Y012197D01*
X009238Y012148D01*
X009236Y012099D01*
X010486Y012099D02*
X010486Y011880D01*
X009267Y006037D02*
X007267Y006037D01*
X007267Y006036D02*
X007233Y006034D01*
X007199Y006029D01*
X007166Y006020D01*
X007134Y006008D01*
X007103Y005992D01*
X007074Y005973D01*
X007048Y005952D01*
X007023Y005927D01*
X007002Y005901D01*
X006983Y005872D01*
X006967Y005841D01*
X006955Y005809D01*
X006946Y005776D01*
X006941Y005742D01*
X006939Y005708D01*
X006939Y005396D01*
X009267Y006037D02*
X009297Y006035D01*
X009327Y006030D01*
X009356Y006021D01*
X009383Y006008D01*
X009409Y005993D01*
X009433Y005974D01*
X009454Y005953D01*
X009473Y005929D01*
X009488Y005903D01*
X009501Y005876D01*
X009510Y005847D01*
X009515Y005817D01*
X009517Y005787D01*
X009517Y003787D01*
X009519Y003757D01*
X009524Y003727D01*
X009533Y003698D01*
X009546Y003671D01*
X009561Y003645D01*
X009580Y003621D01*
X009601Y003600D01*
X009625Y003581D01*
X009651Y003566D01*
X009678Y003553D01*
X009707Y003544D01*
X009737Y003539D01*
X009767Y003537D01*
X010861Y003537D01*
X011267Y003943D01*
X011274Y003950D02*
X011700Y003950D01*
D13*
X003346Y011599D02*
X003205Y011599D01*
D14*
X003346Y011599D02*
X003695Y011599D01*
D15*
X006939Y004443D02*
X006939Y004208D01*
D16*
X005966Y012943D03*
X005257Y012943D03*
X011944Y013193D03*
X012653Y013193D03*
D17*
X017059Y011855D03*
X017027Y004462D03*
D18*
X017027Y006202D03*
X017027Y002722D03*
X017059Y010115D03*
X017059Y013595D03*
D19*
X014285Y005115D03*
X014065Y005115D03*
X013845Y005115D03*
X013625Y005115D03*
X013625Y004028D03*
X013845Y004028D03*
X014065Y004028D03*
X014285Y004028D03*
D20*
X013955Y004572D03*
D21*
X014498Y004682D03*
X014498Y004902D03*
X014498Y004462D03*
X014498Y004242D03*
X013412Y004242D03*
X013412Y004462D03*
X013412Y004682D03*
X013412Y004902D03*
D22*
X008961Y009870D03*
X008361Y009870D03*
X006267Y008087D03*
X005674Y008087D03*
X005674Y007487D03*
X006267Y007487D03*
X003317Y007787D03*
X002717Y007787D03*
X002130Y007787D03*
X001530Y007787D03*
X001530Y008693D03*
X002130Y008693D03*
X002717Y008693D03*
X003317Y008693D03*
X003330Y009260D03*
X003330Y009860D03*
X003255Y012643D03*
X003255Y013243D03*
X006518Y013599D03*
X007118Y013599D03*
X013226Y013787D03*
X013826Y013787D03*
X003755Y005255D03*
X003755Y004680D03*
X003155Y005255D03*
X003755Y004080D03*
D23*
X011267Y007565D03*
X011267Y009195D03*
X013486Y011040D03*
X013486Y012670D03*
X006799Y012414D03*
X006799Y010784D03*
D24*
X007614Y011599D03*
X005984Y011599D03*
X010452Y008380D03*
X012082Y008380D03*
X012671Y011855D03*
X014301Y011855D03*
D25*
X002816Y011075D02*
X001968Y011075D01*
X001968Y011923D01*
X002816Y011923D01*
X002816Y011075D01*
X002816Y011357D02*
X001968Y011357D01*
X001968Y011639D02*
X002816Y011639D01*
X002816Y011921D02*
X001968Y011921D01*
D26*
X001642Y011999D03*
X001642Y011799D03*
X001642Y011599D03*
X001642Y011399D03*
X001642Y011199D03*
X001642Y010999D03*
X003142Y010999D03*
X003142Y011199D03*
X003142Y011399D03*
X003142Y011599D03*
X003142Y011799D03*
X003142Y011999D03*
D27*
X002892Y012249D03*
X002692Y012249D03*
X002492Y012249D03*
X002292Y012249D03*
X002092Y012249D03*
X001892Y012249D03*
X001892Y010749D03*
X002092Y010749D03*
X002292Y010749D03*
X002492Y010749D03*
X002692Y010749D03*
X002892Y010749D03*
D28*
X004942Y008161D03*
X004116Y007787D03*
X004942Y007413D03*
X004942Y006692D03*
X004116Y006318D03*
X004942Y005944D03*
D29*
X004982Y008872D03*
X004982Y009620D03*
X004116Y009246D03*
D30*
X010085Y004717D03*
X010085Y004462D03*
X010085Y004206D03*
X010085Y003950D03*
X011700Y003950D03*
X011700Y004206D03*
X011700Y004462D03*
X011700Y004717D03*
D31*
X004199Y011599D03*
X003648Y011599D03*
D32*
X003924Y011245D03*
D33*
X006939Y005312D03*
X006939Y004761D03*
X011267Y005261D03*
X011267Y005812D03*
D34*
X010913Y005537D03*
X007294Y005037D03*
D35*
X009642Y008870D03*
X009642Y009578D03*
D36*
X001611Y002818D03*
D37*
X001611Y003818D03*
X001611Y004818D03*
X001611Y005818D03*
D38*
X006939Y003261D03*
D39*
X005199Y003261D03*
X008679Y003261D03*
D40*
X013625Y005537D03*
X014058Y005537D03*
X014058Y006037D03*
X013625Y006037D03*
X015111Y004460D03*
X015545Y004460D03*
X008961Y008870D03*
X008527Y008870D03*
X008527Y009370D03*
X008961Y009370D03*
X008812Y011599D03*
X008379Y011599D03*
X005966Y012287D03*
X005533Y012287D03*
X005234Y011599D03*
X004801Y011599D03*
X005533Y013599D03*
X005966Y013599D03*
X011457Y011855D03*
X011890Y011855D03*
X012220Y012613D03*
X012653Y012613D03*
X012653Y013787D03*
X012220Y013787D03*
X015143Y011855D03*
X015576Y011855D03*
D41*
X011267Y010409D03*
X011267Y009976D03*
X010486Y011383D03*
X010486Y011816D03*
X011267Y006784D03*
X011267Y006351D03*
X012667Y003623D03*
X013147Y003623D03*
X013147Y003190D03*
X012667Y003190D03*
X013625Y003190D03*
X014065Y003190D03*
X014065Y003623D03*
X013625Y003623D03*
X014547Y003623D03*
X015007Y003623D03*
X015007Y003190D03*
X014547Y003190D03*
X002692Y012695D03*
X002692Y013128D03*
M02*
