G75*
%MOIN*%
%OFA0B0*%
%FSLAX24Y24*%
%IPPOS*%
%LPD*%
%AMOC8*
5,1,8,0,0,1.08239X$1,22.5*
%
%ADD10C,0.0000*%
D10*
X001017Y002037D02*
X017955Y002037D01*
X017955Y002036D02*
X017988Y002038D01*
X018020Y002043D01*
X018052Y002051D01*
X018082Y002063D01*
X018112Y002078D01*
X018139Y002096D01*
X018164Y002116D01*
X018188Y002140D01*
X018208Y002165D01*
X018226Y002192D01*
X018241Y002222D01*
X018253Y002252D01*
X018261Y002284D01*
X018266Y002316D01*
X018268Y002349D01*
X018267Y002349D02*
X018267Y013974D01*
X018268Y013974D02*
X018266Y014007D01*
X018261Y014039D01*
X018253Y014071D01*
X018241Y014101D01*
X018226Y014131D01*
X018208Y014158D01*
X018188Y014183D01*
X018164Y014207D01*
X018139Y014227D01*
X018112Y014245D01*
X018082Y014260D01*
X018052Y014272D01*
X018020Y014280D01*
X017988Y014285D01*
X017955Y014287D01*
X001017Y014287D01*
X000973Y014285D01*
X000930Y014279D01*
X000888Y014270D01*
X000846Y014257D01*
X000806Y014240D01*
X000767Y014220D01*
X000730Y014197D01*
X000696Y014170D01*
X000663Y014141D01*
X000634Y014108D01*
X000607Y014074D01*
X000584Y014037D01*
X000564Y013998D01*
X000547Y013958D01*
X000534Y013916D01*
X000525Y013874D01*
X000519Y013831D01*
X000517Y013787D01*
X000517Y002537D01*
X000519Y002493D01*
X000525Y002450D01*
X000534Y002408D01*
X000547Y002366D01*
X000564Y002326D01*
X000584Y002287D01*
X000607Y002250D01*
X000634Y002216D01*
X000663Y002183D01*
X000696Y002154D01*
X000730Y002127D01*
X000767Y002104D01*
X000806Y002084D01*
X000846Y002067D01*
X000888Y002054D01*
X000930Y002045D01*
X000973Y002039D01*
X001017Y002037D01*
M02*
